<svg xmlns="http://www.w3.org/2000/svg" xmlns:xlink="http://www.w3.org/1999/xlink" width="85" height="85" viewBox="0 0 85 85">
    <defs>
        <ellipse id="a" cx="42.238" cy="42.124" rx="42.238" ry="42.124"/>
        <path id="c" d="M58.929.152h29.383v29.303H58.929z"/>
    </defs>
    <g fill="none" fill-rule="evenodd" transform="rotate(45 41.822 42.97)">
        <mask id="b" fill="#fff">
            <use xlink:href="#a"/>
        </mask>
        <g mask="url(#b)">
            <path fill="#2C6AFF" stroke="#2C6AFF" d="M-1.836-2.046h29.383v29.303H-1.836z"/>
            <path fill="#0007BC" stroke="#0007BC" d="M56.93 56.561h29.383v29.303H56.93z"/>
            <g transform="translate(-2 -2.198)">
                <use fill="#3B26FF" xlink:href="#c"/>
                <path stroke="#3B26FF" d="M59.429.652h28.383v28.303H59.429z"/>
            </g>
            <path fill="#1A21D2" stroke="#1920D2" d="M56.93 27.257h29.383V56.56H56.93z"/>
            <path fill="#3B26FF" stroke="#3B26FF" d="M-1.836 56.561h29.383v29.303H-1.836z"/>
            <path fill="#1A21D2" stroke="#1920D2" d="M27.547 56.561H56.93v29.303H27.547z"/>
            <path fill="#244BFF" stroke="#244BFF" d="M27.547-2.046H56.93v29.303H27.547zM-1.836 27.257h29.383V56.56H-1.836z"/>
            <path fill="#3B26FF" stroke="#3B26FF" d="M27.547 27.257H56.93V56.56H27.547z"/>
        </g>
        <path fill="#FFF" d="M48.55 27.323c2.472-1.875 5.278-2.812 8.419-2.812 2.368 0 4.363.437 5.985 1.31 1.622.873 2.91 2.028 3.862 3.466.953 1.438 1.635 3.055 2.047 4.852.412 1.798.618 3.62.618 5.47V61.02h-1.7V39.762c0-1.438-.167-2.978-.502-4.621-.334-1.644-.914-3.133-1.737-4.468-.824-1.335-1.931-2.452-3.321-3.35-1.39-.9-3.141-1.348-5.252-1.348-1.854 0-3.592.398-5.214 1.194-1.622.795-3.038 1.938-4.248 3.427-1.21 1.49-2.175 3.3-2.896 5.43-.72 2.131-1.081 4.558-1.081 7.28V61.02h-1.7V39.762c0-1.438-.14-2.978-.424-4.621-.283-1.644-.811-3.133-1.583-4.468-.773-1.335-1.841-2.452-3.206-3.35-1.364-.9-3.102-1.348-5.213-1.348-1.853 0-3.591.398-5.213 1.194-1.622.795-3.038 1.938-4.248 3.427-1.21 1.49-2.163 3.3-2.858 5.43-.695 2.131-1.042 4.558-1.042 7.28V61.02h-1.7V34.524c0-.564-.012-1.258-.038-2.08-.026-.82-.052-1.655-.077-2.503a66.891 66.891 0 0 0-.27-4.351h1.698c.052.513.09 1.155.116 1.925.026.77.052 1.605.078 2.503.025.9.051 1.772.077 2.62.026.847.038 1.604.038 2.272.67-1.644 1.39-3.107 2.317-4.39.927-1.285 1.97-2.376 3.128-3.274a12.878 12.878 0 0 1 3.785-2.042 13.034 13.034 0 0 1 4.21-.693c1.853 0 3.462.283 4.826.847 1.365.565 2.51 1.336 3.437 2.311a11.627 11.627 0 0 1 2.24 3.428c.566 1.31.978 2.734 1.236 4.275 1.184-3.492 2.935-6.175 5.406-8.05z" mask="url(#b)" transform="rotate(-45 42.719 42.766)"/>
    </g>
</svg>
